# xmcd CD database file
#
# Track frame offsets:
#	150
#	10100
#	25330
#	36196
#	49318
#	65880
#	79922
#	89176
#	100154
#	112906
#	125144
#	137448
#	149608
#	160144
#	172438
#	189614
#	204338
#	220762
#	231918
#	248188
#
# Disc length: 3521 seconds
#
# Revision: 0
# Processed by: cddbd v1.5.2PL0 Copyright (c) Steve Scherf et al.
# Submitted via: CDex 1.51
#
DISCID=2f0dbf14
DTITLE=Ralf Paulsen - Western von Gestern
DYEAR=2012
DGENRE=Country
TTITLE0=Bonanza
TTITLE1=Es hängt eine Pferdehalfter an der Wand
TTITLE2=Geisterreiter
TTITLE3=Das alte Haus von Rocky Docky
TTITLE4=High Noon (12 Uhr mittags)
TTITLE5=Tom Dooley
TTITLE6=Tränen in deinen Augen
TTITLE7=Oh my darling, Caroline
TTITLE8=Kleine Annabell
TTITLE9=Lass die Sonne wieder scheinen
TTITLE10=Kein Gold im Blue River
TTITLE11=Anja, Anja
TTITLE12=Eine kleine Träne
TTITLE13=Die Western von gestern
TTITLE14=Little Joe 'good-bye'
TTITLE15=Ich sing die alten Western-Songs
TTITLE16=Sommerwein (ft. Marion März)
TTITLE17=Jeder Tag geht zu Ende
TTITLE18=Neu sind die Namen
TTITLE19=Sierra madre del sur
EXTD=YEAR: 2012
EXTT0=
EXTT1=
EXTT2=
EXTT3=
EXTT4=
EXTT5=
EXTT6=
EXTT7=
EXTT8=
EXTT9=
EXTT10=
EXTT11=
EXTT12=
EXTT13=
EXTT14=
EXTT15=
EXTT16=
EXTT17=
EXTT18=
EXTT19=
PLAYORDER=
